HIERARCHY
ROOT Root
{
	OFFSET 0.00000 0.00000 0.00000
	CHANNELS 6 Xposition Yposition Zposition Zrotation Xrotation Yrotation
	JOINT Hip
	{
		OFFSET 0 0 0	
		CHANNELS 3 Zrotation Xrotation Yrotation
		JOINT Tummy
		{
			OFFSET 0 0.04 0	
			CHANNELS 3 Zrotation Xrotation Yrotation
			JOINT ChestBottom
			{
				OFFSET 0 0.194 0	
				CHANNELS 3 Zrotation Xrotation Yrotation
				JOINT ChestTop
				{
					OFFSET 0 0.166 0	
					CHANNELS 3 Zrotation Xrotation Yrotation
					JOINT LeftCollar
					{
						OFFSET 0 0.1 0	
						CHANNELS 3 Zrotation Xrotation Yrotation
						JOINT LeftUpperArm
						{
							OFFSET 0.156 -0.02 0.03	
							CHANNELS 3 Zrotation Xrotation Yrotation
							JOINT LeftForeArm
							{
								OFFSET 0.035 -0.27 -0.01	
								CHANNELS 3 Zrotation Xrotation Yrotation
								JOINT LeftHand
								{
									OFFSET 0.01 -0.27 0.01	
									CHANNELS 3 Zrotation Xrotation Yrotation
									End Site
									{
										OFFSET 0 -0.15 0
									}
								}
							}
						}
					}
					JOINT RightCollar
					{
						OFFSET 0 0.1 0	
						CHANNELS 3 Zrotation Xrotation Yrotation
						JOINT RightUpperArm
						{
							OFFSET -0.156 -0.02 0.03	
							CHANNELS 3 Zrotation Xrotation Yrotation
							JOINT RightForeArm
							{
								OFFSET -0.035 -0.27 -0.01	
								CHANNELS 3 Zrotation Xrotation Yrotation
								JOINT RightHand
								{
									OFFSET -0.01 -0.27 0.01	
									CHANNELS 3 Zrotation Xrotation Yrotation
									End Site
									{
										OFFSET 0 -0.15 0
									}
								}
							}
						}
					}
					JOINT Neck
					{
						OFFSET 0 0.1 0	
						CHANNELS 3 Zrotation Xrotation Yrotation
						JOINT Head
						{
							OFFSET 0 0.127 0.03	
							CHANNELS 3 Zrotation Xrotation Yrotation
							End Site
							{
								OFFSET 0 0.127 0.03
							}
						}
					}
				}
			}
		}
	}
	JOINT LeftHip
	{
		OFFSET 0 0 0	
		CHANNELS 3 Zrotation Xrotation Yrotation
		JOINT LeftThigh
		{
			OFFSET 0.088 -0.06 0	
			CHANNELS 3 Zrotation Xrotation Yrotation
			JOINT LeftLowerLeg
			{
				OFFSET 0 -0.39 0.02	
				CHANNELS 3 Zrotation Xrotation Yrotation
				JOINT LeftFootTop
				{
					OFFSET 0 -0.43 -0.02	
					CHANNELS 3 Zrotation Xrotation Yrotation
					JOINT LeftFootFront
					{
						OFFSET 0 -0.07 0.085	
						CHANNELS 3 Zrotation Xrotation Yrotation
						End Site
						{
							OFFSET 0 -0.005 0.09
						}
					}
				}
				JOINT LeftHeel
				{
					OFFSET 0 -0.43 -0.02	
					CHANNELS 3 Zrotation Xrotation Yrotation
					End Site
					{
						OFFSET 0 -0.075 -0.05
					}
				}
			}
		}
	}
	JOINT RightHip
	{
		OFFSET 0 0 0	
		CHANNELS 3 Zrotation Xrotation Yrotation
		JOINT RightThigh
		{
			OFFSET -0.088 -0.06 0	
			CHANNELS 3 Zrotation Xrotation Yrotation
			JOINT RightLowerLeg
			{
				OFFSET 0 -0.39 0.02	
				CHANNELS 3 Zrotation Xrotation Yrotation
				JOINT RightFootTop
				{
					OFFSET 0 -0.43 -0.02	
					CHANNELS 3 Zrotation Xrotation Yrotation
					JOINT RightFootFront
					{
						OFFSET 0 -0.07 0.085	
						CHANNELS 3 Zrotation Xrotation Yrotation
						End Site
						{
							OFFSET 0 -0.005 0.09
						}
					}
				}
				JOINT RightHeel
				{
					OFFSET 0 -0.43 -0.02	
					CHANNELS 3 Zrotation Xrotation Yrotation
					End Site
					{
						OFFSET 0 -0.075 -0.05
					}
				}
			}
		}
	}
}
MOTION
Frames: 6
Frame Time: 0.008
0 0.96077 0 -0 0 -0 -5.9848 3.4646 -51.231 3.2819 -2.055 0.72136 3.2819 -2.055 0.72135 2.7549 -1.7291 0.59799 -0 0 -0 -5.8285 4.4351 8.2479 -0.0019811 4.0935 -1.4621 3.8436 -0.044881 -4.3305 -0 0 -0 -3.4247 11.001 19.297 22.8 -41.256 -95.261 -38.257 -28.927 78.404 -0.36245 0.80279 -1.0971 2.3841 -0.93006 -0.5103 -5.9848 3.4646 -51.231 5.2601 8.7001 8.7114 2.2965 3.308 -1.443 4.4263 -10.823 -30.399 0 0 -1.5942e-06 -0 0 -0 -5.9848 3.4646 -51.231 9.9834 -0.80812 16.24 0.71874 -2.2907 -14.915 -6.6019 4.7866 -9.1993 0 0 -1.6157e-06 -0 0 -0 
2.4208e-05 0.96077 -2.1048e-05 -0 0 -0 -5.983 3.4654 -51.23 3.2829 -2.0568 0.72017 3.2829 -2.0568 0.72018 2.7557 -1.7305 0.59699 -0 0 -0 -5.8321 4.4369 8.2458 -0.00067706 4.0939 -1.4592 3.8423 -0.044057 -4.329 -0 0 -0 -3.427 11.007 19.298 22.804 -41.257 -95.255 -38.258 -28.93 78.401 -0.36311 0.80411 -1.0966 2.3842 -0.93022 -0.51079 -5.983 3.4654 -51.23 5.2612 8.697 8.7085 2.2965 3.3097 -1.4407 4.4249 -10.823 -30.4 0.00016734 -0.00015966 -0.00060949 -0 0 -0 -5.983 3.4654 -51.23 9.9834 -0.81083 16.238 0.71611 -2.2926 -14.914 -6.6003 4.7898 -9.1995 -0.00036658 -0.0028757 0.00042723 -0 0 -0 
4.9246e-05 0.96077 -4.311e-05 -0 0 -0 -5.9808 3.4662 -51.229 3.284 -2.059 0.71888 3.284 -2.059 0.71888 2.7566 -1.7324 0.5959 -0 0 -0 -5.8365 4.4392 8.2428 0.0010892 4.0945 -1.4557 3.8413 -0.04611 -4.3282 -0 0 -0 -3.4297 11.013 19.299 22.809 -41.258 -95.248 -38.261 -28.929 78.4 -0.36386 0.80573 -1.0963 2.3844 -0.93042 -0.51157 -5.9808 3.4662 -51.229 5.2624 8.6931 8.7048 2.2965 3.3117 -1.4379 4.4232 -10.824 -30.402 0.00021003 -0.00020021 -0.00077693 -0 0 -0 -5.9808 3.4662 -51.229 9.9833 -0.81422 16.236 0.71295 -2.295 -14.913 -6.5993 4.7912 -9.1993 -0.00122 -0.0034814 0.00055805 -0 0 -0 
7.5121e-05 0.96077 -6.6221e-05 -0 0 -0 -5.9782 3.4672 -51.227 3.2853 -2.0615 0.71755 3.2853 -2.0615 0.71756 2.7577 -1.7345 0.59477 -0 0 -0 -5.8415 4.4419 8.2387 0.00339 4.0952 -1.452 3.8398 -0.048806 -4.3271 -0 0 -0 -3.4326 11.021 19.299 22.815 -41.259 -95.239 -38.264 -28.928 78.4 -0.36468 0.8076 -1.0962 2.3847 -0.93071 -0.51271 -5.9782 3.4672 -51.227 5.2639 8.6884 8.7004 2.2965 3.3142 -1.4345 4.4212 -10.824 -30.404 0.00025101 -0.00024205 -0.00091762 -0 0 -0 -5.9782 3.4672 -51.227 9.9833 -0.81836 16.234 0.70932 -2.2981 -14.912 -6.5991 4.7931 -9.1987 -0.0024929 -0.003974 0.00070979 -0 0 -0 
0.00010182 0.96077 -9.041e-05 -0 0 -0 -5.9754 3.4684 -51.225 3.2868 -2.0644 0.7163 3.2868 -2.0644 0.7163 2.7589 -1.7369 0.5937 -0 0 -0 -5.8471 4.445 8.2333 0.0063692 4.0963 -1.4484 3.8378 -0.052286 -4.3254 -0 0 -0 -3.4357 11.029 19.3 22.822 -41.259 -95.229 -38.267 -28.927 78.399 -0.36553 0.80961 -1.0967 2.385 -0.93112 -0.5143 -5.9754 3.4684 -51.225 5.2656 8.6832 8.6952 2.2966 3.317 -1.4305 4.4189 -10.825 -30.406 0.0002843 -0.00027748 -0.0010766 -0 0 -0 -5.9754 3.4684 -51.225 9.9833 -0.82318 16.231 0.70538 -2.3019 -14.91 -6.6003 4.7958 -9.1976 -0.0041168 -0.0041551 0.00087987 -0 0 -0 
0.00012933 0.96078 -0.0001157 -0 0 -0 -5.9723 3.4696 -51.222 3.2883 -2.0674 0.71525 3.2883 -2.0674 0.71525 2.7603 -1.7395 0.5928 -0 0 -0 -5.853 4.4481 8.2268 0.010082 4.0977 -1.4453 3.8353 -0.056614 -4.323 -0 0 -0 -3.4385 11.038 19.3 22.828 -41.258 -95.219 -38.269 -28.925 78.399 -0.36634 0.81156 -1.0978 2.3855 -0.9317 -0.51635 -5.9723 3.4696 -51.222 5.2675 8.6776 8.6895 2.2968 3.3201 -1.4259 4.4163 -10.826 -30.409 0.0003223 -0.00030693 -0.0011889 -0 0 -0 -5.9723 3.4696 -51.222 9.9833 -0.82849 16.228 0.70144 -2.3064 -14.908 -6.6034 4.7996 -9.1959 -0.0059168 -0.0038548 0.001036 -0 0 -0 
